<mxfile host="app.diagrams.net" modified="2022-01-03T16:49:18.351Z" agent="5.0 (Windows NT 10.0; Win64; x64) AppleWebKit/537.36 (KHTML, like Gecko) Chrome/96.0.4664.110 Safari/537.36" etag="cD4wcrzkqs8uIh4-CGFK" version="16.1.4" type="github">
  <diagram id="NDT_n2IxOW_hEu5SFQYL" name="Page-1">
    <mxGraphModel dx="707" dy="464" grid="1" gridSize="10" guides="1" tooltips="1" connect="1" arrows="1" fold="1" page="1" pageScale="1" pageWidth="850" pageHeight="1100" math="0" shadow="0">
      <root>
        <mxCell id="0" />
        <mxCell id="1" parent="0" />
        <mxCell id="EA6XTScox7vaLfp8z1kA-3" value="" style="edgeStyle=orthogonalEdgeStyle;rounded=0;orthogonalLoop=1;jettySize=auto;html=1;" edge="1" parent="1" source="EA6XTScox7vaLfp8z1kA-1" target="EA6XTScox7vaLfp8z1kA-2">
          <mxGeometry relative="1" as="geometry" />
        </mxCell>
        <mxCell id="EA6XTScox7vaLfp8z1kA-1" value="Adding a chemical/container" style="ellipse;whiteSpace=wrap;html=1;" vertex="1" parent="1">
          <mxGeometry x="20" y="70" width="120" height="80" as="geometry" />
        </mxCell>
        <mxCell id="EA6XTScox7vaLfp8z1kA-2" value="" style="whiteSpace=wrap;html=1;" vertex="1" parent="1">
          <mxGeometry x="220" y="80" width="120" height="60" as="geometry" />
        </mxCell>
      </root>
    </mxGraphModel>
  </diagram>
</mxfile>
